<svg width="1200" height="630" viewBox="0 0 1200 630" fill="none" xmlns="http://www.w3.org/2000/svg">
<rect width="1200" height="630" fill="white"/>
<rect x="87" y="63" width="480" height="235" rx="32" fill="#E0E0E0"/>
<path d="M144.664 246.482V247.616H157.222V246.482H144.664ZM144.664 242.66V243.752H157.222V242.66H144.664ZM144.664 239.93H157.222V238.796H144.664V239.93ZM135.046 225.482V230.564H138.364V231.026H148.486V229.892H139.666V226.91H148.486V225.818H138.49V224.558C137.566 224.866 136.418 225.174 135.046 225.482ZM154.114 231.026H164.614V234.47H138.364V235.1H135.466C135.97 235.968 136.628 237.172 137.44 238.712C138.28 240.224 138.854 241.26 139.162 241.82V235.604H162.85V250.934H156.886C159.938 251.998 162.584 253.132 164.824 254.336L162.976 258.074C160.092 256.506 156.662 255.064 152.686 253.748L153.862 250.934H147.604L148.948 253.37C146.344 255.19 142.802 256.688 138.322 257.864L136.642 254.168C139.75 253.272 142.578 252.194 145.126 250.934H144.664H139.162V244.676L136.978 246.356C135.774 243.696 135.13 242.282 135.046 242.114V257.528H130.132V245.936C129.376 248.204 128.494 250.15 127.486 251.774L125.218 246.566C127.598 242.59 129.208 238.768 130.048 235.1H126.142V230.564H130.132V226.364C128.788 226.532 127.696 226.644 126.856 226.7L126.394 222.416C130.734 222.08 134.794 221.31 138.574 220.106L139.246 222.122H148.486V219.812H154.114V222.122H163.816V225.818H154.114V226.91H162.85V229.892H154.114V231.026ZM182.548 221.408L187.672 223.046C185.992 226.882 184.032 231.53 181.792 236.99L181.834 237.074C183.43 235.982 184.97 235.436 186.454 235.436C188.078 235.436 189.352 236.108 190.276 237.452C191.228 238.768 191.914 241.064 192.334 244.34C192.614 246.496 192.95 247.966 193.342 248.75C193.734 249.506 194.252 249.884 194.896 249.884C196.688 249.884 198.368 246.902 199.936 240.938L205.06 242.366C202.792 251.018 199.362 255.344 194.77 255.344C192.642 255.344 190.948 254.644 189.688 253.244C188.456 251.816 187.574 249.422 187.042 246.062C186.734 243.99 186.398 242.59 186.034 241.862C185.67 241.134 185.194 240.77 184.606 240.77C183.29 240.77 181.848 241.834 180.28 243.962C178.74 246.09 176.78 249.996 174.4 255.68L169.36 253.748C173.336 243.64 177.732 232.86 182.548 221.408ZM243.112 225.104L239.164 226.994C238.268 225.146 237.204 223.116 235.972 220.904L239.92 218.93C241.068 221.086 242.132 223.144 243.112 225.104ZM249.58 224.6L245.548 226.532C244.036 223.62 242.944 221.548 242.272 220.316L246.304 218.3C247.592 220.652 248.684 222.752 249.58 224.6ZM244.666 249.674L245.254 254.42C242.258 255.176 239.458 255.554 236.854 255.554C232.822 255.554 229.938 255.022 228.202 253.958C226.494 252.894 225.64 251.326 225.64 249.254C225.64 248.05 226.032 246.762 226.816 245.39C227.6 243.99 228.72 242.674 230.176 241.442L234.25 243.878C232.15 245.838 231.1 247.35 231.1 248.414C231.1 249.254 231.534 249.856 232.402 250.22C233.298 250.584 234.782 250.766 236.854 250.766C238.954 250.766 241.558 250.402 244.666 249.674ZM228.286 234.68C233.354 233.756 238.59 233.294 243.994 233.294V238.04C238.814 238.04 233.732 238.502 228.748 239.426L228.286 234.68ZM221.146 220.232L226.48 220.694C226.004 223.186 225.612 225.16 225.304 226.616C228.804 226.364 232.542 225.972 236.518 225.44L237.022 230.186C232.71 230.774 228.426 231.208 224.17 231.488C222.238 239.692 219.69 248.106 216.526 256.73L211.36 255.218C214.384 247.07 216.806 239.258 218.626 231.782C216.414 231.894 214.23 231.978 212.074 232.034V227.246C214.622 227.19 217.184 227.106 219.76 226.994C219.928 226.266 220.39 224.012 221.146 220.232ZM282.172 240.938H278.14V251.732C279.4 251.844 280.38 251.9 281.08 251.9C281.612 251.9 281.92 251.83 282.004 251.69C282.116 251.522 282.172 250.962 282.172 250.01V240.938ZM282.172 236.402V226.112H278.14V236.402H282.172ZM263.86 226.112H259.828V236.402H263.86V226.112ZM268.984 226.112V236.402H273.016V226.112H268.984ZM283.768 256.562C283.04 256.562 281.108 256.492 277.972 256.352L277.93 255.47H273.016V240.938H268.984V255.47H263.86V240.938H259.828V256.73H254.536V240.938H251.386V236.402H254.536V221.45H287.464V236.402H290.614V240.938H287.464V249.842C287.464 251.97 287.366 253.482 287.17 254.378C286.974 255.274 286.638 255.862 286.162 256.142C285.714 256.422 284.916 256.562 283.768 256.562ZM323.038 242.366C324.298 239.286 325.138 235.198 325.558 230.102H320.182C319.678 231.39 319.286 232.356 319.006 233L320.812 232.706C321.372 236.766 322.114 239.986 323.038 242.366ZM305.188 248.708C306.084 247.784 306.826 246.678 307.414 245.39H303.172C302.752 246.202 302.332 246.944 301.912 247.616C302.472 247.784 303.564 248.148 305.188 248.708ZM307.54 225.944C308.828 223.788 309.766 221.884 310.354 220.232L314.428 221.576C313.616 223.62 312.678 225.524 311.614 227.288H313.84V231.278H308.506C309.85 232.286 311.264 233.49 312.748 234.89C314.876 230.914 316.682 225.79 318.166 219.518L322.954 220.106C322.534 222.234 322.128 224.012 321.736 225.44H332.53V230.102H330.388C329.772 237.718 328.288 243.528 325.936 247.532C327.504 249.492 329.716 251.284 332.572 252.908L330.388 257.108C327.364 255.456 324.9 253.552 322.996 251.396C321.064 253.44 318.404 255.344 315.016 257.108L312.958 253.79L311.446 256.352C309.738 255.428 307.946 254.518 306.07 253.622C303.13 255.582 299.574 256.814 295.402 257.318L293.974 253.286C296.718 252.95 299.07 252.362 301.03 251.522C299.378 250.934 297.446 250.318 295.234 249.674C296.074 248.386 296.9 246.958 297.712 245.39H294.142V241.4H299.518C299.91 240.448 300.204 239.706 300.4 239.174L305.692 239.678C305.412 240.462 305.202 241.036 305.062 241.4H315.016V245.39H312.328C311.768 247.154 310.844 248.834 309.556 250.43C310.704 250.962 312.02 251.592 313.504 252.32C316.36 250.752 318.572 249.058 320.14 247.238C318.712 244.578 317.606 241.358 316.822 237.578C316.15 238.838 315.548 239.888 315.016 240.728L311.11 237.746L310.27 238.712C308.814 236.976 307.708 235.716 306.952 234.932V238.796H302.038V234.638C300.442 236.654 298.524 238.488 296.284 240.14L293.638 236.486C296.158 234.834 298.286 233.098 300.022 231.278H294.394V227.288H297.334C296.494 225.496 295.57 223.746 294.562 222.038L298.51 220.358C299.546 222.094 300.526 223.97 301.45 225.986L298.342 227.288H302.038V220.022H306.952V227.288H310.9L307.54 225.944Z" fill="#939393"/>
<rect x="479" y="144.604" width="38.8027" height="9.85099" rx="1" fill="#4B4B4B"/>
<rect width="44.9493" height="9.76281" rx="1" transform="matrix(0.26679 0.963755 -0.961586 0.274503 522.008 109)" fill="#4B4B4B"/>
<rect x="477.614" y="127.717" width="34.6453" height="9.85099" rx="1" fill="#4B4B4B"/>
<path d="M879.276 439.565C879.185 445.481 878.392 450.23 876.896 453.811C875.4 457.393 873.099 460.113 869.994 461.971C866.889 463.807 862.695 465.02 857.414 465.609L856.564 461.427C860.032 460.974 862.865 460.305 865.064 459.421C867.285 458.515 869.121 457.2 870.572 455.477C872.023 453.732 873.054 451.579 873.666 449.017C874.301 446.456 874.652 443.215 874.72 439.293L879.276 439.565ZM851.396 441.265L855.68 440.313C856.609 443.441 857.629 447.215 858.74 451.635L854.32 452.587C853.277 448.213 852.303 444.439 851.396 441.265ZM860.576 440.143L864.996 439.157C865.971 442.625 866.991 446.524 868.056 450.853L863.636 451.805C862.639 447.793 861.619 443.906 860.576 440.143Z" fill="#4B4B4B"/>
<path d="M886.79 442.829L888.966 438.749C892.389 440.381 895.902 442.206 899.506 444.223L897.228 448.235C894.191 446.535 890.711 444.733 886.79 442.829ZM909.74 442.013L914.058 442.965C912.857 449.697 910.137 454.877 905.898 458.503C901.659 462.13 895.766 464.272 888.218 464.929L887.538 460.509C894.111 459.875 899.155 458.084 902.668 455.137C906.204 452.168 908.561 447.793 909.74 442.013Z" fill="#4B4B4B"/>
<path d="M940.68 444.733L936.838 446.569C935.931 444.824 934.877 442.863 933.676 440.687L937.518 438.749C938.538 440.608 939.592 442.603 940.68 444.733ZM946.698 443.509L942.788 445.379C941.836 443.498 940.759 441.492 939.558 439.361L943.468 437.389C944.919 440.064 945.995 442.104 946.698 443.509ZM923.476 438.307H928.236V447.827C934.129 449.255 940.295 451.148 946.732 453.505L945.304 457.789C939.637 455.681 933.948 453.913 928.236 452.485V466.391H923.476V438.307Z" fill="#4B4B4B"/>
<path d="M974.816 444.869H963.494C962.066 448.496 959.822 451.771 956.762 454.695L953.532 451.941C955.504 449.992 957.113 447.759 958.36 445.243C959.629 442.705 960.423 440.121 960.74 437.491L965.16 437.729C965.069 438.681 964.911 439.701 964.684 440.789H979.678V441.571C979.678 449.482 977.876 455.319 974.272 459.081C970.668 462.844 964.877 465.054 956.898 465.711L956.218 461.631C962.587 460.997 967.177 459.433 969.988 456.939C972.821 454.446 974.431 450.423 974.816 444.869Z" fill="#4B4B4B"/>
<rect x="743" y="467.224" width="55.9331" height="13.8961" rx="3" fill="#4B4B4B"/>
<rect width="63.5064" height="14.0504" rx="3" transform="matrix(0.272196 0.962242 -0.963124 0.269059 804.995 417)" fill="#4B4B4B"/>
<rect x="741.002" y="443.402" width="49.9403" height="13.8961" rx="3" fill="#4B4B4B"/>
<rect x="631" y="63" width="480" height="235" rx="32" fill="#FF8372" fill-opacity="0.3"/>
<path d="M699.76 217.012L705.094 217.348C704.226 227.008 701.79 234.12 697.786 238.684C693.81 243.248 687.426 246.342 678.634 247.966L677.458 243.304C684.878 241.876 690.254 239.202 693.586 235.282C696.946 231.362 699.004 225.272 699.76 217.012ZM671.368 219.364L676.198 218.104C677.374 222.052 678.55 226.336 679.726 230.956L674.854 232.174C673.678 227.498 672.516 223.228 671.368 219.364ZM681.994 217.138L686.95 215.878C688.378 220.918 689.568 225.356 690.52 229.192L685.522 230.41C684.57 226.406 683.394 221.982 681.994 217.138ZM715.51 242.38C723.182 241.624 729.146 239.482 733.402 235.954C737.658 232.426 740.612 227.19 742.264 220.246L747.43 221.674C745.75 229.598 742.334 235.702 737.182 239.986C732.058 244.242 725.072 246.762 716.224 247.546L715.51 242.38ZM714.754 220.498L717.61 216.088C721.726 218.44 725.674 220.96 729.454 223.648L726.43 228.058C722.566 225.314 718.674 222.794 714.754 220.498ZM782.206 222.892L777.46 225.16C776.34 223.004 775.038 220.582 773.554 217.894L778.3 215.5C779.56 217.796 780.862 220.26 782.206 222.892ZM789.64 221.38L784.81 223.69C783.634 221.366 782.304 218.888 780.82 216.256L785.65 213.82C787.442 217.124 788.772 219.644 789.64 221.38ZM761.164 214.954H766.876V226.462C773.4 228.198 779.63 230.382 785.566 233.014L783.634 237.76C778.118 235.352 772.532 233.364 766.876 231.796V248.806H761.164V214.954ZM801.274 248.386L800.266 243.514C807.462 242.73 812.81 240.784 816.31 237.676C819.81 234.568 821.91 229.976 822.61 223.9H809.506C807.826 227.68 805.11 231.404 801.358 235.072L797.662 231.796C802.646 226.644 805.614 220.834 806.566 214.366L811.9 214.66C811.704 216.508 811.452 218.006 811.144 219.154H828.28V223.9C827.412 231.46 824.864 237.172 820.636 241.036C816.436 244.872 809.982 247.322 801.274 248.386ZM853.312 220.288V217.978H845.038V220.288H853.312ZM853.312 223.816H845.038V226.168H853.312V223.816ZM858.688 220.288H866.962V217.978H858.688V220.288ZM858.688 223.816V226.168H866.962V223.816H858.688ZM853.018 236.164C856.49 234.148 859.766 232.062 862.846 229.906H858.646C856.462 231.558 854.012 233.21 851.296 234.862C851.52 235.03 851.828 235.268 852.22 235.576C852.612 235.856 852.878 236.052 853.018 236.164ZM865.03 236.038L869.398 233.854C871.61 236.29 873.682 238.782 875.614 241.33L871.33 243.682C871.218 243.542 870.98 243.248 870.616 242.8C870.28 242.324 870.014 241.96 869.818 241.708L864.61 241.834C867.998 243.318 871.288 244.886 874.48 246.538L872.002 250.318C868.866 248.638 865.114 246.818 860.746 244.858L862.93 241.876L858.688 241.96V250.528H853.06V242.128L848.44 242.212L850.666 244.858C847.642 246.734 843.988 248.512 839.704 250.192L837.31 246.37C840.474 245.194 843.47 243.836 846.298 242.296L837.52 242.506L837.352 238.264L847.264 238.054C845.024 236.346 842.896 234.778 840.88 233.35L845.038 230.242C845.318 230.438 845.738 230.746 846.298 231.166C846.886 231.586 847.292 231.866 847.516 232.006C849.588 230.718 850.694 230.018 850.834 229.906H845.038H839.536V213.82H872.464V229.906H866.626L868.6 231.586C865.492 233.826 862.258 235.912 858.898 237.844L866.458 237.676C866.29 237.48 866.038 237.2 865.702 236.836C865.394 236.472 865.17 236.206 865.03 236.038ZM885.736 249.226V250.738H880.696V238.18H896.236V249.226H885.736ZM885.736 245.278H891.616V242.128H885.736V245.278ZM917.614 225.496V230.284H910.894V250.528H905.392V230.284H897.706V225.496H905.392V213.232H910.894V225.496H917.614ZM880.696 218.524V214.408H896.068V218.524H880.696ZM879.604 224.698V220.288H897.454V224.698H879.604ZM881.074 230.536V226.546H896.026V230.536H881.074ZM881.074 236.374V232.342H896.026V236.374H881.074ZM945.712 232.678H953.104V230.494H945.712V232.678ZM945.712 238.348H953.104V236.08H945.712V238.348ZM934.078 231.88C935.898 232.832 938.152 233.784 940.84 234.736V220.834H945.838C946.118 219.826 946.314 219.056 946.426 218.524H939.874V223.984H938.488V225.748C937.2 228.128 935.73 230.172 934.078 231.88ZM930.424 229.528C931.656 228.38 932.678 227.12 933.49 225.748H927.82C927.764 225.804 927.68 225.916 927.568 226.084C927.484 226.252 927.414 226.364 927.358 226.42C928.282 227.596 929.304 228.632 930.424 229.528ZM938.278 238.6V246.58C941.162 245.32 943.514 243.948 945.334 242.464H940.84V235.366L939.958 239.23C939.566 239.09 939.006 238.88 938.278 238.6ZM934.624 237.004C933.056 236.248 931.712 235.52 930.592 234.82C929.696 235.464 928.492 236.192 926.98 237.004H934.624ZM927.988 248.89V250.528H922.99V238.852C922.906 238.88 922.654 238.978 922.234 239.146C921.814 239.314 921.492 239.44 921.268 239.524L920.26 235.03C923.088 233.994 925.314 233 926.938 232.048C926.07 231.264 925.3 230.48 924.628 229.696C923.732 230.648 922.892 231.418 922.108 232.006L920.218 228.058C921.59 226.966 922.836 225.608 923.956 223.984H921.058V215.878H927.862V212.686H933.196V215.836H939.244V214.114H959.194V218.524H951.844C951.732 219.056 951.536 219.826 951.256 220.834H958.186V242.464H952.642C955.554 243.92 957.976 245.446 959.908 247.042L957.514 250.906C954.994 249.03 952.264 247.35 949.324 245.866L951.382 242.464H946.426L948.694 245.572C946.706 247.504 943.948 249.212 940.42 250.696L938.278 247V248.89H927.988ZM927.988 245.026H933.742V240.91H927.988V245.026ZM953.104 227.05V224.908H945.712V227.05H953.104ZM935.296 219.91H925.678V221.086C925.706 220.974 925.776 220.834 925.888 220.666C926 220.498 926.07 220.372 926.098 220.288L930.508 220.834C930.452 220.946 930.368 221.128 930.256 221.38C930.144 221.604 930.06 221.786 930.004 221.926H935.296V219.91Z" fill="#E3402A" fill-opacity="0.6"/>
<rect x="1031.08" y="143.701" width="38.4615" height="9.21429" rx="1" fill="#E3402A"/>
<rect x="1028" y="112.085" width="38.4615" height="9.21429" rx="1" fill="#E3402A"/>
<rect x="1043.38" y="127.893" width="34.6154" height="9.21428" rx="1" fill="#E3402A"/>
<rect x="87" y="332" width="480" height="235" rx="32" fill="#3571CA" fill-opacity="0.3"/>
<path d="M137.758 488.534L143.344 488.24L143.89 494.792L157.078 493.91L157.414 498.782L144.31 499.664L145.024 508.19L158.884 507.182L159.22 512.054L145.402 513.062L146.242 523.226L140.656 523.52L139.816 513.482L125.116 514.532L124.78 509.618L139.396 508.568L138.682 500.042L126.922 500.84L126.586 495.968L138.304 495.17L137.758 488.534ZM194.206 496.892L189.46 499.16C188.34 497.004 187.038 494.582 185.554 491.894L190.3 489.5C191.56 491.796 192.862 494.26 194.206 496.892ZM201.64 495.38L196.81 497.69C195.634 495.366 194.304 492.888 192.82 490.256L197.65 487.82C199.442 491.124 200.772 493.644 201.64 495.38ZM173.164 488.954H178.876V500.462C185.4 502.198 191.63 504.382 197.566 507.014L195.634 511.76C190.118 509.352 184.532 507.364 178.876 505.796V522.806H173.164V488.954ZM213.274 522.386L212.266 517.514C219.462 516.73 224.81 514.784 228.31 511.676C231.81 508.568 233.91 503.976 234.61 497.9H221.506C219.826 501.68 217.11 505.404 213.358 509.072L209.662 505.796C214.646 500.644 217.614 494.834 218.566 488.366L223.9 488.66C223.704 490.508 223.452 492.006 223.144 493.154H240.28V497.9C239.412 505.46 236.864 511.172 232.636 515.036C228.436 518.872 221.982 521.322 213.274 522.386ZM273.712 506.678H281.104V504.494H273.712V506.678ZM273.712 512.348H281.104V510.08H273.712V512.348ZM262.078 505.88C263.898 506.832 266.152 507.784 268.84 508.736V494.834H273.838C274.118 493.826 274.314 493.056 274.426 492.524H267.874V497.984H266.488V499.748C265.2 502.128 263.73 504.172 262.078 505.88ZM258.424 503.528C259.656 502.38 260.678 501.12 261.49 499.748H255.82C255.764 499.804 255.68 499.916 255.568 500.084C255.484 500.252 255.414 500.364 255.358 500.42C256.282 501.596 257.304 502.632 258.424 503.528ZM266.278 512.6V520.58C269.162 519.32 271.514 517.948 273.334 516.464H268.84V509.366L267.958 513.23C267.566 513.09 267.006 512.88 266.278 512.6ZM262.624 511.004C261.056 510.248 259.712 509.52 258.592 508.82C257.696 509.464 256.492 510.192 254.98 511.004H262.624ZM255.988 522.89V524.528H250.99V512.852C250.906 512.88 250.654 512.978 250.234 513.146C249.814 513.314 249.492 513.44 249.268 513.524L248.26 509.03C251.088 507.994 253.314 507 254.938 506.048C254.07 505.264 253.3 504.48 252.628 503.696C251.732 504.648 250.892 505.418 250.108 506.006L248.218 502.058C249.59 500.966 250.836 499.608 251.956 497.984H249.058V489.878H255.862V486.686H261.196V489.836H267.244V488.114H287.194V492.524H279.844C279.732 493.056 279.536 493.826 279.256 494.834H286.186V516.464H280.642C283.554 517.92 285.976 519.446 287.908 521.042L285.514 524.906C282.994 523.03 280.264 521.35 277.324 519.866L279.382 516.464H274.426L276.694 519.572C274.706 521.504 271.948 523.212 268.42 524.696L266.278 521V522.89H255.988ZM255.988 519.026H261.742V514.91H255.988V519.026ZM281.104 501.05V498.908H273.712V501.05H281.104ZM263.296 493.91H253.678V495.086C253.706 494.974 253.776 494.834 253.888 494.666C254 494.498 254.07 494.372 254.098 494.288L258.508 494.834C258.452 494.946 258.368 495.128 258.256 495.38C258.144 495.604 258.06 495.786 258.004 495.926H263.296V493.91Z" fill="#3571CA" fill-opacity="0.6"/>
<rect x="487" y="423" width="38" height="9.3086" rx="1" transform="rotate(-90 487 423)" fill="#2488D0"/>
<rect x="502.346" y="423" width="38" height="9.3086" rx="1" transform="rotate(-90 502.346 423)" fill="#2488D0"/>
<rect x="517.691" y="422.422" width="34.2" height="9.3086" rx="1" transform="rotate(-90 517.691 422.422)" fill="#2488D0"/>
</svg>
