<?xml version="1.0" standalone="no"?>
<!DOCTYPE svg PUBLIC "-//W3C//DTD SVG 20010904//EN"
 "http://www.w3.org/TR/2001/REC-SVG-20010904/DTD/svg10.dtd">
<svg version="1.0" xmlns="http://www.w3.org/2000/svg"
 width="800.000000pt" height="800.000000pt" viewBox="0 0 800.000000 800.000000"
 preserveAspectRatio="xMidYMid meet">
<metadata>
Created by potrace 1.11, written by Peter Selinger 2001-2013
</metadata>
<g transform="translate(0.000000,800.000000) scale(0.100000,-0.100000)"
fill="#000000" stroke="none">
<path d="M5135 6181 c-187 -54 -350 -103 -362 -109 -32 -17 -62 -59 -69 -97
-4 -25 124 -496 565 -2066 315 -1119 577 -2046 583 -2062 14 -37 61 -75 102
-83 26 -4 121 18 398 96 199 56 373 108 386 116 32 21 62 73 62 108 0 27
-1126 4054 -1152 4119 -17 44 -74 77 -128 76 -25 -1 -198 -45 -385 -98z"/>
<path d="M1204 4436 c-17 -8 -42 -29 -55 -47 l-24 -34 -3 -375 c-2 -240 0
-388 7 -410 6 -20 24 -49 41 -65 l31 -30 1662 -3 c1244 -2 1669 1 1690 9 16 7
39 28 53 48 l24 36 0 391 c0 390 0 391 -23 425 -12 19 -38 42 -57 51 -33 17
-133 18 -1675 18 -1355 -1 -1645 -3 -1671 -14z"/>
<path d="M1316 2729 c-20 -17 -40 -47 -46 -67 -6 -22 -10 -183 -10 -397 0
-335 2 -363 20 -403 15 -33 29 -47 62 -62 42 -19 82 -20 1886 -20 1999 0 1879
-3 1932 55 l25 27 3 399 c3 442 3 440 -61 479 -31 20 -65 20 -1904 20 l-1872
0 -35 -31z"/>
</g>
</svg>
